<svg id="Layer_1" data-name="Layer 1" xmlns="http://www.w3.org/2000/svg" viewBox="0 0 152.5 128.5"><defs><style>.cls-1{fill:#fff;stroke:#fff;stroke-miterlimit:10;stroke-width:0.5px;}</style></defs><path id="pedal" class="cls-1" d="M96.44,1.67c3-1.07,6.35-.56,9.48-.46a1.38,1.38,0,0,1,1.51,1.09,4.58,4.58,0,0,1,.11,2.08v.13c.28,1.64-.27,3.33.06,5,0,.34.47.28.72.25l.13.06a.7.7,0,0,0,.71.07l.51.08a.38.38,0,0,0,.51.09l.35.08a.4.4,0,0,0,.51.12l.12,0a.43.43,0,0,0,.52.1l.33.11a2.09,2.09,0,0,0,1.1.21l.11-.22.16-.44a1.17,1.17,0,0,1,.16-.34v-.1l-.37-.14a1.19,1.19,0,0,0,.25-.72c.31.08.41-.3.3-.52l.08-.13c0-.07,0-.14.07-.2a.61.61,0,0,1,.06-.32c.25,0-.39-.39-.39-.39V6.86s1.09-.42,1-.69l.08-.13-.1-.2V5.68c.45,0,.54-.3.51-.53a1.17,1.17,0,0,1,0-.34.45.45,0,0,0,.32-.55.31.31,0,0,0-.06-.13l.1-.13a1.34,1.34,0,0,0,.11-.14l.22-.23.13-.1.13-.07a3.91,3.91,0,0,1,1.72.33,3,3,0,0,0,.76.22h.29l.19.24.15.07c.18.3.85-.31.85-.31h.51s.29,1.18.52,1.07l.14.07.2-.14h1s.42.89.68.82l.13.08.21.1h.17c0,.3.4.34.66.29l.15.07,1.18.83v.13a4.82,4.82,0,0,1,.22.89l-.09.13.87.2v.17s-1.31.29-1.27.51a2,2,0,0,1,0,.49c-.33-.08-.44.31-.28.53l-.09.13-.36.21v.17a1.56,1.56,0,0,0,0,.68l-.09.13-.08.2,0,.16-.12.36-.09.14c0,.07-.54.2-.54.2v.15s0,.31.09.58a.56.56,0,0,0,0,.12l-.08.14a4.34,4.34,0,0,0,1,.2V14s-1.41.29-1.35.52c0,0,0,.09.35.13v.13c-.39.17-.33.39-.15.49s.22-.25.22-.25h.27a5.67,5.67,0,0,0,.22.55l.23.15a.54.54,0,0,0,.75.3h.15l.22.42,1,.55c0,.07.13.23.18.3l.46.24a.3.3,0,0,0,.36.17.27.27,0,0,0,.18-.31c.37-.43.78-.82,1.18-1.21A3.39,3.39,0,0,0,130,15l.86-.86a.69.69,0,0,0,.66-.66l.17-.17a2.58,2.58,0,0,1,1.86-.76l.89.55a.61.61,0,0,0,.51.7h.08a6.24,6.24,0,0,0,1.62,1.58l.12.11.12.12a.53.53,0,0,0,.54.56.55.55,0,0,0,.55.54l.12.09a.47.47,0,0,0,.35.37.42.42,0,0,0,.4.41l.14.12.16.16.15.16.13.13a.48.48,0,0,0,.43.44l.12.09c.1.2.21.4.32.59l.21.26v.73c-1.59,2.09-4,3.64-5.36,5.83l.27.08.15.4c0,.25-.06.28-.06.28V27s.52.39.79.34l.21.43.12.12.07.13c-.07.25,0,.37.28.35a5.58,5.58,0,0,0,.35.58l.18.28v.14a3.87,3.87,0,0,0,.21.34c0,.06.11.17.14.23a.44.44,0,0,0,.84,0l.15-.05.2-.1.13-.1a.47.47,0,0,0,.65-.15.36.36,0,0,0,0-.09l.15-.07a.52.52,0,0,0,.68-.26V29h.37l.14-.1a.47.47,0,0,0,.64-.15.36.36,0,0,0,0-.09l.15-.07c.23.12.6,0,.53-.29l.33-.06.2-.08.13-.08c.25.08.64.06.66-.28l.56-.19.3-.14a6.4,6.4,0,0,0,.88-.08.44.44,0,0,0,.46.41h.05a1.08,1.08,0,0,0,.21.52l.11.13a1.29,1.29,0,0,0,.19.57l-.15.31v.13l.5.33a1.62,1.62,0,0,0,.23.56l.11.14a1.43,1.43,0,0,0,.19.57l0,.33v.13l1,.16v.14s-.55.28-.52.37l.06.17.09.21.1.14c-.12.25-.06.62.27.66v.17l.08.21.08.13c-.06.28.84.73.84.73v.13s-.45.6,0,.71v.13l-.09.2.08.15a.35.35,0,0,0,.09.47l0,0a4.09,4.09,0,0,0,0,.78c-.34,0-.49.33-.58.6l-.13.06-.16.07-.15.07a1.48,1.48,0,0,0-.7,0h-.17l-.2.39-.14.1a.45.45,0,0,0-.63.13.39.39,0,0,0-.06.11l-.15.07A.49.49,0,0,0,146,39s0,0,0,0h-.17l-.19.18-.14.08-.52-.26h-.51s-.39.64-.35.9l-.33.05-.19.08-.13.08c-.69-.08-1.3.48-.87,1.16v.15a.35.35,0,0,0,.1.5.8.8,0,0,0,.05.34.4.4,0,0,0,.12.51l.05.17a.41.41,0,0,0,.11.52c0,.12.05.38.07.52a.64.64,0,0,0,.1.7l.06.13a.54.54,0,0,0,.34.71v.12c-.21.11-.14.33-.11.43,2.58.09,7.74-.07,7.74-.07h.24s.06.55.13.54v.14a4.82,4.82,0,0,0,1,1v.12l-1,5.57v.35a3.57,3.57,0,0,0,1,2.21v.16c-.84.13-.94.39-.87.64l-.28.36a14.29,14.29,0,0,1-1.91-.09h-.07a19.18,19.18,0,0,0-3.78,1h-.12a2,2,0,0,0-2-.76l0,.27v.14a4.09,4.09,0,0,0-.34,1.44,2.83,2.83,0,0,1-.07.76,2.15,2.15,0,0,0-.3,1.26.65.65,0,0,1-.05.31l-.24.35v.33s0,.27,1,.36v.14c-1.29.13-1.28.23-1,.31l.52.24c0,.28.36.35.61.3l.58.21.14.05.34.13.13.08a1.63,1.63,0,0,0,.58.24c0,.34.39.36.64.28l.13.08.21.08.32.06c0,.24.37.34.37.34h.34s.43.33.67.21l.14.1.2.69h.15c.14-.32.42-.16.71-.18l.1.09c.32.59.34,1.3-.83,1.91V68c.54,0,1,.68,1,.68v.14L149,69l-.08.15c-.24.13-1.4.68-1.4.68V70s.74.11.77.38a3,3,0,0,1,0,.53l.23.16v.14l-.48.17-.09.13a.78.78,0,0,1-.09.21l0,.16-.15.33a3.49,3.49,0,0,0-.2.57c-.35,0-.37.4-.29.65l-.08.14.43.2v.17c-.84,0-.9.4-.81.67l-.08.14A4.37,4.37,0,0,0,146,76h-.13a1.15,1.15,0,0,0-.89,0h-.35c0-.4-.36-.47-.61-.38a2.24,2.24,0,0,0-.73-.24l-.16-.11-.13-.08-.2-1.19h-.33a3.46,3.46,0,0,1-.53.84l-.14-.09-.21.25h-.17l-.66-1h-.33l-.71,1h-.15l-.19-1.14-.16-.07c-.09-.28-.39-.33-.65-.79h-.14c-.69.13-1.12,1-1.87,1.55v.14c.27.25,0,.6-.16,1a2.25,2.25,0,0,0-.21.53c-.27-.07-.63.32-.63.32v.28c-1.6.57.16,1.89.94,2.36l.1.07.26.28.1.07a41.49,41.49,0,0,0,3.6,3.54V84c-2.4,2.31-5,4.48-7.2,7h-.27l-.54-.22-.09-.12a2.21,2.21,0,0,0-.69-.56.3.3,0,0,0-.29-.34.11.11,0,0,0-.08,0,4.76,4.76,0,0,0-1.53-1.53.43.43,0,0,0-.37-.5.28.28,0,0,0-.13,0,8,8,0,0,0-2.06-2.07c-1.1,0-2.28,1.12-3.08,2.34h-.27l-.21-.15a1.08,1.08,0,0,0-.71.39.25.25,0,0,0-.19.29c0,.1.1.18.71.2V89l-.44.2.09.14.35.36v.16l-.15.2.08.12a1.69,1.69,0,0,0,.07.68v1.39l1,.68v.14l.16.22.1.14a.49.49,0,0,0,.23.65,3.47,3.47,0,0,1-.49,0v.14a4.5,4.5,0,0,0,.85.69l.08.16a2.17,2.17,0,0,0,.07.91v.14a.62.62,0,0,0-.69.44l-.11.09-.15-.69h-.15c-.27.72-.58.84-.69,1.11,0,0,0-.11,0-.11h-.13l-.16,1h-.52l-.38-1h-.15l-.71,1h-.13l-.17,1h0l-.75-1h-.13a4.08,4.08,0,0,0-.69.7l-.15.08-.18.22h-.15l-.74,1h-.42s-.62-.58-.77,0h-.11a2.78,2.78,0,0,0-1.4-.11l-.09-.1a2.47,2.47,0,0,0-.73-.81,1.21,1.21,0,0,0-.24-.71l-.09-.14a1.83,1.83,0,0,0-.07-.32l-.09-.21-.08-.14-1-.18v-.14l1-.16v-.53s-.34-.71-.69-.81a1.74,1.74,0,0,0-.24-.58l-.2.14a.56.56,0,0,0-.06-.31c0-.23-.12-.45.19-.59v-.13l-.67-.32-.21-.69c0-.44-.53-.48-.81-.16h-.14l-.34.09-.34.07a4.09,4.09,0,0,0-1.42.25l-.31.09c-.22-.11-.68.5-.68.5h-.12s-1.34-.57-1.53.12a44.61,44.61,0,0,1,0,7.31c-.27,0-.36.25-.35.46l-.15.21-.31.17a61.58,61.58,0,0,1-9.41,0,.33.33,0,0,0-.43-.18l0,0-.21-.2c-.4-.76,0-1.64-.29-2.42l-.08-.28c0-1.6,0-3.21.19-4.8.13-.94-1.09-.79-1.69-.81l-.31-.06c-.11-.16-.32-.21-.49.45h-.32a1.41,1.41,0,0,0-1.41-.9l-.3-.06a1,1,0,0,0-1.41,0c-.19.2-.29.46-1.41.73v.13l1,.12a2.12,2.12,0,0,0-.25.6l.24.33v.14l-.51.13a1.53,1.53,0,0,0-.26.75l-1.23.17v.13l1,.19-.07.16.07.37v.15l-.35.17-.08.13c0,.07-.06.14.43.21v.17c-.86,0-.93.42-.8.68l-.1.12a1.67,1.67,0,0,1-.08.2,1.76,1.76,0,0,1-.07.33c-.32.23-.59.53-.78-.18h-1l-.32,1h-.13s-.42-.52-.71-.42l-.13-.08-.2-.5h-.15l-.72,1H83.2L83,99l-.16-.08a7.48,7.48,0,0,0-.68-.9H82l-.13.49a1.54,1.54,0,0,0-.76-.26L81,98h-.32l-.16-.07a6.31,6.31,0,0,0-.86-.92h-.35l-.67.18-.2-.18-.2,1h-.16l-.37-2h-.14l-.17,1h0l-.2-.08a3.55,3.55,0,0,1-.25-1.28,2.11,2.11,0,0,0-.1-.38,2.65,2.65,0,0,0-1.08.94l-.75.73a28.58,28.58,0,0,0-4.57,4.29l-.42.26a7.88,7.88,0,0,0-2,2l-.58.47a7.88,7.88,0,0,0-2,2c-.28.25-.55.49-.81.76a4.37,4.37,0,0,0-1.62,1.46l-.37.4c-.25.1-.21.52.1.47l.51,0h.94a1.26,1.26,0,0,1,1-.6,4.58,4.58,0,0,0,1.17,0,1,1,0,0,0,.87-.19,2.43,2.43,0,0,0,.85,0l.34.18a4.68,4.68,0,0,0,1.26-.39h.13l.17,1h1.5a2.08,2.08,0,0,1,.48-.52h0l.33.07a5.86,5.86,0,0,0,.52.46h.13l.42-.24.29.06.14.08a3.28,3.28,0,0,0,.58.25c0,.21.14.3.36.25l.28.6h.32l.22-.14.27.06a.32.32,0,0,0,.28.34h.1l.32.2a3.31,3.31,0,0,0,1.16,1.19l.2.31a.32.32,0,0,0,.26.36h-.53v.13a5.52,5.52,0,0,1,.86.37h.08c0,.08.15.25.21.33s-.15.34-.15.34v.17l.07.2.08.13c-.11.23,0,.58.31.51a1.73,1.73,0,0,0,0,.51c.06.13,0,.14.06.19l.08.12a.43.43,0,0,0,.11.51l.06.17a1.1,1.1,0,0,0,.1.85,2.61,2.61,0,0,0,.08.46v1.45s.28.35.26.47.74.85.74.85v.35l-1,.69v.52l-.29.16-.08.17c-.23.14-.34.42-.63.68V123l.09.23-.16.22a2.87,2.87,0,0,0-.59.94l-.06.11a1.65,1.65,0,0,0-.79.91l-.3.21a.35.35,0,0,0-.38.31.32.32,0,0,0,0,.17,2.85,2.85,0,0,0-.54.18l-.16-.28h-.16a10.36,10.36,0,0,1-.72,1h-.14L74,128h-.17l-.21-.51-.13.07c-.32-.07-.87.44-.87.44h-.52s-.49-.16-.69,0l-.3.09c-.46,0-1.4.92-1.4.92h-.14s-35.22-.83-52.82-.73a44.06,44.06,0,0,1-8-1.27H8.6s-.33.68-.51.76l-.17-.07-.37.31H6.91l-.16-.67-.55-.28L6.08,127l-.54-.28a1.62,1.62,0,0,0-1-.71H4.43a3.16,3.16,0,0,0-1.1-1.21c0-.08-.13-.25-.17-.33s-.22-.18-.62-.23V124l0-.25a1.06,1.06,0,0,0-.09-.25,2.16,2.16,0,0,0-.61-1.09l-.06-.16L1.73,122l-.08-.13a.38.38,0,0,0-.08-.52h-1v-.16s.91-.13.87-.2l-.11-.32a.68.68,0,0,0-.11-.71l-.08-.3a1.17,1.17,0,0,0-.1-1,1.5,1.5,0,0,0,0-.3c.13-.82.53-2.46.53-2.46v-.31a1.27,1.27,0,0,0,.06-.8,3.66,3.66,0,0,0,.27-.61c.31,0,.34-.38.67-.62v-.14l-.25-.12.24-.42.11-.11.19-.41a.32.32,0,0,0,.39-.24v0c.15-.23.32-.46.48-.69a.33.33,0,0,0,.36-.29.17.17,0,0,0,0-.07.89.89,0,0,0,.68-.53c.23,0,.35-.06.35-.3l.36-.24c.2.18.55,0,.42-.26l.57-.7h.14l.29.35c.23,0,.56.65.56.65h.14l.35-2h.16s1,.82,1.4.6a21.52,21.52,0,0,1,2.54,0,1.32,1.32,0,0,0,.85-.18c5.54.06,11.11-.14,16.64.58h.17c1.07-.2,1.64-1.41,2.24-2.08a.76.76,0,0,0,.65-.64,7.39,7.39,0,0,0,.71-.88.79.79,0,0,0,.65-.65,5.77,5.77,0,0,0,.85-1q.38,0,.33-.36l.21-.2.09-.09a5.54,5.54,0,0,0,.93-1.07.75.75,0,0,0,.65-.63,7.3,7.3,0,0,0,.7-.88.53.53,0,0,0,.49-.48A10.21,10.21,0,0,0,39,99a2,2,0,0,0,.84-.85c.25-.27.47-.57.69-.86a.55.55,0,0,0,.49-.49,5.77,5.77,0,0,0,.85-1,.49.49,0,0,0,.5-.84h0a3.65,3.65,0,0,0,1-1.21c.31.08.49-.19.51-.46a5.89,5.89,0,0,0,.87-1,.51.51,0,0,0,.49-.47,6.57,6.57,0,0,0,1-1.23.44.44,0,0,0,.48-.4.37.37,0,0,0,0-.11l.22-.2.09-.09a3.49,3.49,0,0,0,.59-.74.66.66,0,0,0,.64-.64,5.22,5.22,0,0,0,.88-1,.52.52,0,0,0,.5-.48c.26-.3.55-.6.8-.91a2.53,2.53,0,0,0,.74-.79c.11-.13.21-.25.32-.36,2.5-2.26,4.6-5,6.93-7.5.35-.65,1.55-1.07,1.1-1.92-.94-.35-2.2,1-3-.06-1-3.06-3-5.86-3.39-9,2-1.46,4.73-1.91,6.87-3.21.76-1.4-.53-3-.4-4.45s-1.44-1.72-2.52-1.51c-2-.39-4.65.78-6.25-.75a39.06,39.06,0,0,1,.16-9.9l.36-.26c1.8,0,3.62-.46,5.42-.05,1,0,2.8.44,2.51-1.14a.65.65,0,0,1,0-.3.67.67,0,0,0,.1-.68l.08-.33a3.64,3.64,0,0,0,0-1.41v-.33s.37-.26.4-.35l.07-.15c.18-.26.35-.58-.47-.87v-.11c.57-.26.32-.43.06-.38-.05,0-.09,0-.14-.25h-.14l-.17,1H59l-.33-1a1.4,1.4,0,0,0-.57-.21L58,39.69a1.53,1.53,0,0,0-.59-.24L57.08,39h-.14l-.13.18a1.25,1.25,0,0,0-.73-.24c.09-.31-.3-.42-.52-.3l-.13-.07-.21-.08-.31-.07-.14-.1a1.6,1.6,0,0,0-.59-.24c0-.34-.39-.37-.63-.27l-.11-.07c0-.21-.16-.37-.37-.74h0l0,.25a1.14,1.14,0,0,0-.46-1.2v-.16l.61-.17.09-.17c.24-.14.3-.68.3-.68v-.15l.1-.13a1.82,1.82,0,0,0,.27-.77l.63-.17v-.13s-.45-.12-.41-.18l.09-.13c0-.06.07-.16.09-.22s0-.24.07-.32l.09-.13a1.21,1.21,0,0,0,.24-.73c.31.09.41-.3.29-.52l.08-.13a.8.8,0,0,0,.07-.2.61.61,0,0,1,.06-.32c.32.08.33-.54.33-.54v-.16s.4-.43.28-.68l.09-.14a1.86,1.86,0,0,0,.1-.2l.05-.18c.31-.07.34-.41.48-.67v-.14l0-.12.37-.3a.38.38,0,0,0,.51-.09s0,0,0-.42h.86s.41.95.68.83l.13.09.2.09.16,0,.37.12.13.08.2-.26h1l.19.78.17.08c.09.31.7.14.7.14h.22s.15.49.33.49h.06l.48.06.13.11c.18.1.37.19.55.27a.4.4,0,0,0,.46.29.38.38,0,0,0,.21-.14,2.94,2.94,0,0,0,.54-.73c.23,0,.34-.09.32-.34l.07-.1c.28-.14.44-.44,1-.75V28c-.33,0-.1-.12-.06-.36a.46.46,0,0,0,0-.26c.06-.1.19-.28.26-.37a.51.51,0,0,0,.47-.52s0,0,.37,0v-.13c-.22,0-.08-.11-.06-.27a.29.29,0,0,0-.15-.27,9,9,0,0,0-.9-.84l-.34-.24L66,24.59l-.11-.12a2.08,2.08,0,0,0-.91-.92.58.58,0,0,0-.51-.59l-.23-.38a4.83,4.83,0,0,0-1.12-.89,4.23,4.23,0,0,0-.77-.92,3.52,3.52,0,0,1-.12-1.44c1.39-1.33,2.78-2.69,4.09-4.1l.2-.29A32.44,32.44,0,0,0,69,12.64c1-.17,1.55.74,2.28,1.22l.1.06a.39.39,0,0,0,.33.44h.07l.1.07a3.47,3.47,0,0,0,1.27,1.28l.1.07a.38.38,0,0,0,.31.44h.08l.1.07c.52.8,1.83,2.46,2.59,1l.36-.25L76.8,17l.56-.44.16-.1.14-.08.15-.08.42-.24.12-.07.38-.26a3.5,3.5,0,0,0,.14-.72H79s.38.48.38.21l.12-.13a.47.47,0,0,0,.14-.65c-.06-.09-.15-.16-1.12-.19V13.9c.86-.09,1-.53,1-.53v-.16L79,13l-.1-.14c.12-.24-.34-.67-.34-.67v-.34s.09-.5-.23-.52l0-.17-.09-.2-.1-.13c.12-.25-.53-.67-.53-.67V9.83a1.06,1.06,0,0,1,1-.53V9.14L77.42,9l-.07-.13a1.42,1.42,0,0,0-.14-.35l-.06-.17a1,1,0,0,0,0-.68l.24-.44A1.92,1.92,0,0,0,78.06,7h.15l.21-.34.14-.1a5,5,0,0,1,.66.44h.17l.2-.78.14-.07L80.1,6l.16,0,.19-.08.13-.08c.23.12.61,0,.53-.3l.34-.06.2-.07.13-.08c.25.07.67-1.28.67-1.28h.34l.52,1h.17l.19-.42.14-.07c.22.11.53-.51.53-.51h.33l.52,1h.33l.2-1.21.12-.08A2.47,2.47,0,0,1,87.09,4h.14c0-.17.08-.06.31,0v.17l-.05.2.08.13a.55.55,0,0,0,.27.7l.06.15c-.08.22,0,.58.31.51a.68.68,0,0,0,.06.34,1.72,1.72,0,0,0,.07.21l.08.13a1.27,1.27,0,0,0,.12.67v.35l1,.52v.17l.08.19.08.14c-.12.22,0,.6.3.51a1.21,1.21,0,0,0,.24.73l.09.13a1.5,1.5,0,0,1,0,.3c.06.09.17.28.22.37l.11.05a.62.62,0,0,0,.85-.14l.32-.08a.47.47,0,0,0,.54-.12l.14-.06a.76.76,0,0,0,.69-.09l.33-.09.34-.1.52-.07a.71.71,0,0,0,.69-.09l.14-.06a.39.39,0,0,0,.51-.11l.38-.38c.16-2.48,0-5,.11-7.49l.1-.09m2.11,2a5.3,5.3,0,0,0,.11,2.17,3.47,3.47,0,0,0,0,2.25v.35s-.88.44,0,.51v.27A2.58,2.58,0,0,0,98,11a8,8,0,0,1-1,.83l-.14.08c-.26-.08-.83-.2-1,.08l-.42.08c-.15-.13-.61-.16-.62.07l-.37.12c-.16-.11-.63-.2-.63.07l-.41.07-.29.1-.38.06c-.23-.14-.4-.11-.49.09l-.17,0c-.25-.12-.42-.07-.5.13l-.18.05c-.24-.12-.41-.09-.5.11l-.16.07c-.24-.13-.42-.1-.53.09l-.21.08a4.67,4.67,0,0,0-.45-.23h-.13s-.25.1-.48,1h-.17c0-1.06-.17-1.56-.48-1.57L88.22,12c.07-.3,0-.4-.3-.32a.82.82,0,0,0-.23-.76l-1.15-.11V10.7c1-.08.95-.24.92-.32l-.08-.19.16-.19V9.82l-.49-.15a.76.76,0,0,0-.22-.73,1.07,1.07,0,0,0-.29-.14V8.63a.92.92,0,0,1,1-.67V7.75l-1.3-.14A.69.69,0,0,0,86,6.84l-.1-.12a.43.43,0,0,0-.35-.51.48.48,0,0,0-.33.07L85.07,7h-.16c0-.62-.1-.51-.14-.47a.76.76,0,0,0-.74.22L83.89,7H83.4l-.32,1h-.22l-.19-.77-.11.09c-.23-.07-.67,0-.67.3l-.19.06L81.33,7H81a5.81,5.81,0,0,0-.39,1h-.21a1.18,1.18,0,0,0-.87.48v.45a1.49,1.49,0,0,1,.5.58l-.5.15V9.8l1,.68v.17l1,.63v.21l-.64.21.11.13c-.18.23-.47.69-.47.69v.17s.78.73,1,.64v.2a.35.35,0,0,1,.21.21l.12.15c-.17.18,0,.74.25.61l.08.2a1.61,1.61,0,0,0,.21.3,1.58,1.58,0,0,1-.21,1.44s-.07.11-.11-.44H82l-.18.65-.33.14-.19.21h-.18s-.69.2-.68.48l-.29.19-.17.33h-.2s-.8.07-.64.36l-.39.27c-.28-.09-.4,0-.35.28l-.29.07-.24.28-.27.07c-.29,0-.67.31-.53.6L76.7,20c-.26-.11-.33,1-.33,1h-.18l-.2.06-.12.12a4.09,4.09,0,0,1-1.3-.18l-.1-.08a28.29,28.29,0,0,0-4.61-4.67l-.2-.25H69.3c-1.54,1.21-2.8,2.82-4.22,4.18a2.91,2.91,0,0,0,0,.59l.1-.09a13.7,13.7,0,0,0,1,1l.22.29a10.76,10.76,0,0,0,1.13,1.11,2.88,2.88,0,0,0,.22.27,10.86,10.86,0,0,0,1.13,1.12l.23.27a5.46,5.46,0,0,0,.75.77c.63.85.13,1.69-.37,2.45v.15c-.26,0-.65.27-.58.58l-.11.29c-.21-.13-.55.2-.4.41a1.11,1.11,0,0,1-.1.29l-.26.24-.12.29c-.3-.05-.48.43-.43.69v-.54a13.07,13.07,0,0,0-1,1.23v.16c-.27-.13-.46.42-.35.65l-.28.14a13.9,13.9,0,0,1-1.42.49h-.08l-.16-.43-.18-.07c.08-.31-.44-.41-.63-.25a.63.63,0,0,0-.59-.24c.13-.33-.44-.45-.62-.25l-.14-.13L61.9,32h-.21s-.31-.86-.49-.75l-.33-.09-.17-.06L60.51,31l-.33-.1-.13-.11-.19-.8h-.21a5.05,5.05,0,0,0-.64.45l-.14-.12L58.7,30h-.14c-.36-.15-.82.6-1,1v0l1,.15v.18l-1,.68v.15s-.61.35-.43.55l-.07.18-.5.33v.16l.24.14a.73.73,0,0,0-.23.7c-.29-.15-.48.33-.3.52l-.09.13-.09.18-.06.17a.53.53,0,0,0,.24,1l.36.06c-.1.32.43.42.64.28l.13.1.19.34h.2l.3-.13a.7.7,0,0,0,.58.21c-.12.32.43.43.63.28l.13.11.2-.47h.2s.31,1,.49.84l.33.08.18.07.18.08.32.12.14.12.2-.31h.16a6.56,6.56,0,0,0,1,1.16l.13.29c-.16.26-.16.59-1.4.85v.15c1.12.35,1,.81,1.07,1.25l-.06.17c-.21.08-.25.24-.12.47l-.07.22c-.2.09-.23.25-.08.49l-.08.16c-.25,0-.24.49.34.66V44a1.54,1.54,0,0,0-.8,1.57,1.63,1.63,0,0,0,0,.76c-.28,0-.23.45-.1.6l-.1.14c0,.56-.51.92-.59,1.43a62.88,62.88,0,0,1-7.52.06l-.09.09c0,.49-.24,1.15,0,1.55l.09.14-.13-.06a20.34,20.34,0,0,1-.08,4.48l.22.26c2.54,0,7.62,0,7.62,1h.34l.14-.9v.11c-.22,2.9,1.18,5.64,1.31,8.45-2,1.62-5.11,1.78-7.15,3.57.41,1.65,1.4,3.26,2,4.91a1.28,1.28,0,0,0,2,.66c1.7-1,3.9-1.2,5.31-2.61,1.45-1.84,3.49-3.34,4.55-5.42a17.15,17.15,0,0,1-1-8.68v.1a3.62,3.62,0,0,0-.19-.49l.07-.13.06-.18a2.93,2.93,0,0,1,.07-.41c.32.09.42-.43.28-.64l.1-.13.61-.18v-.19l-.36-.27c.06-.11.17-.33.23-.43a1.41,1.41,0,0,1,.13-.18v-.12a7.62,7.62,0,0,0,1-.36v-.16L70,52.2l.25-.42.12-.08c.25-.11.62-.38.53-.7a1.86,1.86,0,0,0,1.06-1,.71.71,0,0,0,.5-.39c.2.19.59-.11.45-.35l.25-.16.13-.08.41-.25c0-.05.1-.1.13.23h.16c.26-.39.8-.55.75-.87l.46-.23.31-.9h.17l.15,1h.32l.34-.49.22-.08L76.8,47h.34a1.6,1.6,0,0,0,1.53,0,1.08,1.08,0,0,0,.69-.07c.74.06,1.48,0,2.22,0l1,0v0A.5.5,0,0,0,83,47h.12l.35,1H84l.14-.75.17.1c.62.46,1.46-.42,1.7-1a2.17,2.17,0,0,0,.71-.88c.22.1.56-.21.44-.44a2.25,2.25,0,0,0,.68-.76c.28-.09.27-.18,0-.27h0l-.26-.1A3,3,0,0,0,86,43h-.13l-.12-.21-.09-.13-.28-.25L85,42.24l-.44-.12V42c.08-.43-.27-.79-.71-1a.48.48,0,0,0-.25-.44c.14-.24-1-.33-1-.33V40l.48-.19-.13-.13-.35-.21v-.15l0-.13a4.25,4.25,0,0,0-.31-.6l-.06-.13-.12-.3c.06-.25-.48-.39-.48-.39v-.24l-.07-.2-.12-.13c0-.08-.08-.22-.09-.3l-.06-.2c0-.07-.11-.21-.14-.28a4,4,0,0,1-.06-.58.47.47,0,0,1-.06-.15l-.06-.11c.12-.25.07-.41-.13-.48a5.52,5.52,0,0,0-.07-.55c0-.15.15-.72-.14-.76V31.1s.39-.6.32-.84l.06-.17c.21-.29-.38-1-.38-1v-.53l1-1.25v-.13l.35-.32c.06-.09.18-.28.25-.37l.06-.13c.1-.18.2-.36.29-.54s0-.11.07-.14l.09-.17c.26.08.55-.28-.11-.53V24.8c.83.08.94,0,.9-.25.19-.08.42-.32.34-.55A2.38,2.38,0,0,0,85,22.76c.31.08.59-.26.68-.52l.24-.14.3-.21.08-.13.44-.22c.17.21.58-.05.44-.54h.16l.14,1h.17l.21-1L88,20.9a1.44,1.44,0,0,0,.66.1h.18l.33-.49.17-.06.34-.07.21-.07.29-.16a2.84,2.84,0,0,0,.72-.07L91.26,19h.17l1.72,1h2.26a.48.48,0,0,0,.5,0,3.61,3.61,0,0,0,.73.07l.33.17.17.05.34.11.18.05L98,21h.15c0-.13.46,0,.71-.15l.14,0c-.12.26.31.59.53.39l.38.14c-.1.24.27.49.48.43l.32.08c0,.06.14.19.18.26l.34.08c-.12.28.26.66.54.54a13.48,13.48,0,0,0,1,1,1.35,1.35,0,0,0,.8.9v.1a3,3,0,0,1,.3.34l.16.09.12.11.06.15.36.16v.15s-.17.14-.15.21l.11.18c-.12.26.13.75.45.66a.64.64,0,0,0,.24.67c-.12.22-.07.7.25.68l.06.17a2.86,2.86,0,0,0,0,1v3.73s.58,1,.44,1.43l-.07.14c-.23,0-.17.49-.1.68s0,.24,0,.32c-.41,0-.48.59-.3.87l-.08.13.11.39v1s-1,.34-.86.52l-.14.14v.46c-.56-.16-.84.56-.51.74a.83.83,0,0,0,.59.25c-.13.25.29.42.48.29l.31.09.15.06a3.31,3.31,0,0,0,.56.29l.15.06.14,0,.18.28.33.13.2-.41h.15s.33,1.21.65,1l.44.27c-.14.33.48.25.33,0l.06-.1.16-.35.06-.19c0-.08.08-.25-.43-.33v-.18c.54-.07.64-.22.67-.3l.06-.22c0-.08,0-.23.06-.31l.12-.14.09-.2v-.22c.29.11.4-.42.27-.61l0-.16c.34.06.68-.68.68-.68v-.25a1.91,1.91,0,0,1,.19-.5l.11-.07a.46.46,0,0,0,.43-.49.29.29,0,0,0,0-.09c.27.08.37,0,.32-.28a4.32,4.32,0,0,0,.73-.75l.1-.1.23-.23c.24.12.56-.19.5-.43l.4-.21c.26,0,.33-.07.23-.33l.42-.23c.69-.16,1.31-.5,1.8-2.37h.2l.19,1.3.12-.1c.25.08.85.09.81-.28l.4-.07.35-.14.12-.06c.26.16.43.12.54.35h.36a1.8,1.8,0,0,1,.48-.46v-.06a4.37,4.37,0,0,0,1-.13.92.92,0,0,0,1.2-.35h.9a.56.56,0,0,0,.81.51l.38.05c.08.2.25.25.5.13l.11.07.17.06.51,0A7.18,7.18,0,0,0,126.44,34h.13a.66.66,0,0,1,.35-.37l.32.37h.37c0-.13.11,0,.11,0h.14s.12.36.4.28l.35.25c-.05.3.41.52.65.58l.11.09a8.94,8.94,0,0,0,1.4,1.21c0,.08.13.25.18.33l.25.26.11.1.16.07.19.41q-.09.39.3.27l.24.43.34.11v.16c-.21.33-.11.91.32.86l0,.15c-.17.19-.06.73.24.67l.1.19a.9.9,0,0,0,.05.36l.1.14c-.13.31-.07.89.14,1v.36a11.17,11.17,0,0,1,.33,2.72h-.33v.52c.19.33,1,1.41,1,1.41v.15s-1,.25-.8.49a1.78,1.78,0,0,1-.06.56l-1.14.3v.14s.72.3.86.54l-.12.14.26.19v.21a2.7,2.7,0,0,0-.49.29.75.75,0,0,0-.2.59c-.29-.08-.54.41-.38.63-.05.08-.15.25-.21.33l-.72.2v.17l1,.1v.11a2.07,2.07,0,0,0-1.6,1.34,10.28,10.28,0,0,1-1.23,1.24c-.3-.14-.59.28-.57.35H129a10.7,10.7,0,0,0-1.26,1l-.26.2c-.2-.23-.66.11-.52.37l-.49.11c-.26-.09-.3.3-.3.3h-.35l-10.13-1h-.14l-.31.27-.39-.23-.17-.06-.19-.1L114.37,57h-1.51c0-.46-.55-.29-.8-.12-.24,1.34-.81,2.66-1.15,3.95,1,1.21,2.7,1.31,3.77,2.43,5,3.74,5.88,11.53,2.27,16.46-2,3.17-5.71,4.52-9.21,5.14-4.86-.1-9.88-2.83-11.65-7.57-.52-1-1.41.14-1.93.56-2.8,2.94-6.17,5.37-8.64,8.55l-.12.11-.1.11a.94.94,0,0,0-.53.41A4.38,4.38,0,0,0,83,88.78a1.53,1.53,0,0,0-.72.58,1.5,1.5,0,0,0-1,1.21.69.69,0,0,0-.18.57c-.31-.13-.44.41-.24.58l-.14.16-.08.19v.18c-.32-.08-.49.41-.31.65l-.1.12-.08.17,0,.19A.87.87,0,0,0,80.56,95h.21a2.52,2.52,0,0,0,.14.45.72.72,0,0,0,.7.23c-.16.29.33.48.52.3l.12.09.19.08.37.07c-.08.26,0,.35.31.27l.39.06c-.09.32.46.43.64.24l.14.12.2.1.21.06c-.1.36.66.48.73.16l.24-.43c0-.08.12-.22-.13-.29v-.15l.39-.13a.82.82,0,0,0,.24-.74c.28.18.49-.32.3-.51l.09-.12.08-.19a2.41,2.41,0,0,1,.07-.37c.26.08.35,0,.27-.31a.93.93,0,0,1,.06-.4c.32.09.41-.44.27-.64l.1-.13.13-.18v-.4l1-.13v-.18a3.62,3.62,0,0,1-.77-.16l.09-.15s.06-.14-.32-.19v-.2l.5-.32.11-.12.12-.14.22-.29L88.6,90h.14a.86.86,0,0,0,.94.23l.17.08.31.69h1l.34-.3.21.07c.09.21.25.23.49.08l.35.09.3.06h.34a2.52,2.52,0,0,0,1.57.36l.35.06c.1.23.59.18.82.07l.17.1a1.1,1.1,0,0,0,1,0l.16.09c.78.62.32,1.7.87,2.39.09.42-.39,1.07.4,1.33v1.24c-.72-.07,0,.63,0,.63V99a.24.24,0,0,1,0,.12c0,.26,0,.56.34.64,1,.51,2.52-.32,3.66.15V100h-.19c.62-.09,1.24-.07,1.85-.11l-.66-.29v-.16a14.15,14.15,0,0,0,1-3.91V95.4c.4-.91-.37-2.53.24-3.4h.14l.19-.34.12-.14a1.17,1.17,0,0,0,1,0l.18-.09a.91.91,0,0,0,.82,0h0l.35-.06a3.27,3.27,0,0,0,1.58-.28l.18-.08c.22.15.37.11.45-.09l.36-.1c.24.15.4.12.48-.08l.21-.07.32-.16a.93.93,0,0,0,.73,0c.17.12.63,0,.55-.27a6.37,6.37,0,0,0,1.07,0c-.13.27.26.53.5.55l.11.11c-.2.19,0,.69.29.5a1,1,0,0,0,0,.38l.1.19.13.15c-.19.16-.08.7.22.59a2.83,2.83,0,0,0,.07.42c-.15.16,0,.58.27.46l.06.21.08.19.09.13c-.18.19,0,.68.3.52a.73.73,0,0,0,.19.69.47.47,0,0,1,.1.1,1.66,1.66,0,0,0,.14.41,1.56,1.56,0,0,0,.2.16l.08.32c-.13.17.05.61.3.48-.13.51.6.7.88.39l.25-.17a.52.52,0,0,0,.55-.24,1.33,1.33,0,0,0,.68.22h.15l.2-.59.14-.1L120,96h.21l.2.07.14-.13c.16.24.69,0,.51-.25a.82.82,0,0,0,.69-.2L122,95h.19l.18.29.36-.3c.28.08.27-.51-.18-.44V94.2l1-.44v-.2l-2-1.1v-.13a.88.88,0,0,1,1-.47v-.38c-1,0-1-.14-1.06-.18l-.1-.13c.14-.21.06-.73-.26-.67l-.08-.17c.17-.18,0-.68-.25-.54a.63.63,0,0,0-.07-.35l-.1-.19-.12-.13c.2-.2.06-.78-.27-.63a7.37,7.37,0,0,1,0-.94.52.52,0,0,0,.06-.16l.09-.13c.28,0,.4-.13.36-.26h.12l.17-.19c.1-.08.3-.24.39-.33.13.25.69,0,.44-.21a2.06,2.06,0,0,0,1-.6l.13.33h.12s.61-.55.46-.81l.41-.16c.71-.31,1.72-.72,1.88-1.57.24.11.46-.18.56-.37l.12-.09h.16s.81,0,1.21,0L128,83l.25.27.31.23.21.28c.32.32.65.63,1,.92L130,85h.12l.23.27c.55.54,1.08,1.1,1.65,1.6l.22.27a4.71,4.71,0,0,0,.84.77c0,.34.72.1.54-.21A4.11,4.11,0,0,0,135,86.13l.13-.11.12-.14c.31,0,.43-.08.37-.36a1.78,1.78,0,0,0,1.08-1.08.35.35,0,0,0,.1-.11.47.47,0,0,0,.56-.37.38.38,0,0,0,0-.15c.21.21.49-.29.18-.33l-.1-.09a27.77,27.77,0,0,0-4.89-4.8l-.06-.16c0-.06,0-.12-.05-.18a2.15,2.15,0,0,1,0-1.07,1.27,1.27,0,0,1,.06-.18l.09-.16.13-.08.22-.31c.24.14.42-.27.25-.43l.31-.2v-.29c.53,0,.68-.5.8-.86a1.13,1.13,0,0,0,.39-.53c.31,0-.19-.68-.19-.68v-.17s1-.06,1-.34v-.18c.32.08.49-.45.4-.7l.13-.15.13-.1a1.64,1.64,0,0,1,.18-.44l.14-.24.19-.08c.18.11.56-.1.4-.32a1.37,1.37,0,0,0,.85,0c-.14.22.26.45.43.3l.41.08c-.1.32.45.43.64.24l.14.13.2.51H140c-.1-.1.43,0,.64-.13l.14.09.19.09.21.06c-.09.3.64.89.64.89h1l.17-1h.18l.18.94.19.07H144l.14.23a.34.34,0,0,0,.47-.1.3.3,0,0,0,.05-.24l-.14-.28v-.15c.58.07.68,0,.61-.33a1.07,1.07,0,0,1,0-.39l.34-.31v-.17l-.07-.14a.72.72,0,0,0,.23-.7c.28.16.47-.33.29-.52l.09-.13a.76.76,0,0,0,.09-.18c0-.09.05-.28.06-.37.26.08.35,0,.27-.32,0-.1.06-.3.07-.4.3.1.4-.43.26-.62l.71-.17v-.14l-.76-.14c.07-.34-.5-.43-.75-.43h-.16l-.15,0a.74.74,0,0,0-.72-.23l-.15-.12-.22-.08-.32-.52h-.14a.82.82,0,0,0-.65,0l-.55-.07L142.82,67h-.17a13.79,13.79,0,0,0-.49-2h-.4l-.11.28a.78.78,0,0,0-.7-.21c.15-.27-.32-.49-.51-.29l-.13-.13c0-.25-.14-.33-.77-.22V64.3a4.57,4.57,0,0,0,.48-1.81l.09-.17c.2-.08.24-.24.11-.47l.07-.22c.2-.09.23-.26.09-.49l0-.14c.2-.09.23-.25.1-.49s0-.26.07-.34c.37-.33.27-.93.25-1.37a1.61,1.61,0,0,1,.1-.36c.2-.07.23-.22.08-.45a1.62,1.62,0,0,1,.07-.58c.29-.08.19-.6.09-.82l.08-.15c.25-.14.22-.62.09-.86l0-.13.18-.15a.58.58,0,0,0,.5-.28,39.87,39.87,0,0,1,6.47-.31v-.57l.92-.46a.48.48,0,0,1,.08-.12v-.17s.18-.21-.08-.3a2.16,2.16,0,0,1,.15-.45c0-.12,0-.08,0-.1a1.94,1.94,0,0,0,0-.68c.24-.2-1.07-1-1.07-1v-.17l1-.54v-.22c.24-.1.24-.2,0-.28a3.93,3.93,0,0,0,0-.84c.06-.27,0-.37-.3-.28a37.41,37.41,0,0,1-7-.06,1,1,0,0,1-.06-.16l-.11-.09-.31-.2-.07-.13c.1-.22.16-.74-.13-.81v-.22s-.27-.57-.38-.84h0a3,3,0,0,0-.09-.41c0-.1.15-.59-.08-.64l-.08-.14a3.37,3.37,0,0,0-.25-1.6l-.06-.11a11.61,11.61,0,0,1-.06-1.28v-.28a.62.62,0,0,1-.43-.36l-.08-.14c.08-.55-.2-1.07-.16-1.62l0-.15.14-.07.28-.27.1-1h.15l.32.71.18-.08.18.37h.14l.68-2h.17l.15,1a.76.76,0,0,0,.72-.22l.14.2h.14l.31-1h.21l.2.44.15-.09a1.78,1.78,0,0,0,.17-.35h.16l.68,1h.18l.15-2h.15l.31,1h.2a.89.89,0,0,1,.6-.45c.1-.35.21-.88-.21-1.06l0-.18-.08-.19-.1-.13a1.41,1.41,0,0,0,.1-.65v-.21a2.67,2.67,0,0,1-.49-.2l-.13-.14c.19-.19.09-.73-.22-.65l-.08-.18c.13-.21,0-.74-.29-.63a.64.64,0,0,0-.25-.6l.46-.12v-.17l-.75-.36a.42.42,0,0,0-.23-.49c0-.28-.12-.29-.27-.59h-.14l-.32.66-.21.09-.16.25h-.12s-1.06-.13-1.05.37l-.51.12c-.24-.09-.35-.49-.35-.49h-.17l-.29.89a.71.71,0,0,0-.6.21l-.12-.1h-.15l-.33.34-.23.08-.13-.42h-.19s-.74.58-.62.9l-.22.08-.16.11-.37.06a.76.76,0,0,0-.72,0L137,33l-.18,0h-.13c.08-.26,0-.67-.27-.61l-.19-.29.31-.17v-.19l-.66-.2-.15-.13c.11-.26,0-.4-.25-.41l-.06-.12c0-.23-.1-.66-.35-.69l-.2-.28-.23-.18a.72.72,0,0,0-.07-.37l0-.18v-.27a.83.83,0,0,0-.06-.21l-.11-.15-.29-.24a2.33,2.33,0,0,1-.14-.33c.17-.19-.19-.53-.38-.39l-.16-.3-.27-.26-.09-.3-.12-.05c0-.32-.07-.45-.38-.39V24.86l.06-.18.09-.14.11-.13c1.59-1.59,3.26-3.15,4.74-4.83q.41-.13,0-.27v-.14l-.28-.22-.08-.11c.16-.23-.22-.55-.42-.37l-.07-.11a1.08,1.08,0,0,0-.79-.78l-.06-.07-.26-.22-.24-.28a1.09,1.09,0,0,0-.77-.76l-.07-.1-.27-.22c-.31-.33-.59-.89-1.12-.82A42.28,42.28,0,0,0,128.3,20l-.1.07a3.37,3.37,0,0,1-1.3.16l-.11-.11L126.6,20h-.33s0,0-.25,0a.37.37,0,0,0-.18,0l-.45-.17q.15-.39-.24-.33l-.41-.17c0-.44-.48-.54-.8-.69l-.42-.17c.2-.22-.25-.5-.4-.27l-.49-.19a1,1,0,0,0-.07-.15l-.39-.27c.1-.31-.42-.51-.67-.54h-.18c.11-.22-.35-.43-.59-.43l-.13-.13-1.06-.2v-.12a1.42,1.42,0,0,0,.89-1.31l.1-.1v-.55l1-.49v-.21s-.21-.44-.33-.65l.12-.14.21-.2V12.3s.34-.46.18-.71l.1-.13.72-.18v-.2s-.55-.24-.53-.32l.12-.15.41-.2v-.16a1.26,1.26,0,0,0,0-.69V9.41l1-.14V9.14A6.42,6.42,0,0,1,122,7h-.13l-.17,1.1,0-.1c.07-.29-.62,0-.62,0h-.14l-.32-.44a.55.55,0,0,0-.6-.18L119.8,7h-.17l-.17.1-.19-.1L119,8h-.17l-.14-1.27a.65.65,0,0,0-.59-.23l-.28-.5h-.16c0,.31-.09.28-.14.25-.32-.17-.6.19-.53.49a.59.59,0,0,1-.4.3v.17l.1.17-.07.19c-.25,0,1,.67,1,.67v.14s-1.56.12-1.47.37-.08.37-.11.49c-.28-.15-.47.34-.29.53l-.07.17a2.54,2.54,0,0,1-.06.33v.16s-.45,0-.36.32a2.79,2.79,0,0,1-.07.4c-.32-.1-.43.45-.23.63l-.13.14-.21.18v.41l1,.13v.14c-1.26-.08-1.71.21-1.61.51a8.34,8.34,0,0,0-1,0c.08-.47-.69-.42-1-.27l-.12-.1-.16-.08-.56-.07a3.92,3.92,0,0,0-1.2-.77h-.36a3.58,3.58,0,0,1-.49.32l-.15-.06c-.06-.25-.5-.21-.68-.09l-.67-.08V12c.1-.13-.15-.13-.34,1h-.54c-.09-1.3-.6-1.27-.83-1.13l-.44-.11c.11-.24-.28-.48-.49-.5l-.1-.09c-.19-2.39-.26-7.21-.26-7.21V3.8l-.22-.07c-1.8-.39-4.09,0-6.11-.16l-.09.09m-5.4,17.87a3.14,3.14,0,0,0-.75,0c-.15-.14-.58-.12-.63.09l-.15.09c-.28-.16-.86-.1-.87.29H90s-.7.64-.61,1h-.43l-.13.1c-.17-.11-.62,0-.54.21l-.3.15-.16.29-.38.25c-.26-.14-.38-.07-.37.19l-.22.14A2,2,0,0,0,85.54,26v.16c-.48-.22-.9,0-.77.3a.61.61,0,0,1-.06.32.58.58,0,0,1-.06.17,1.62,1.62,0,0,0-.48.67c-.3,0-.51.4-.4.65a2.79,2.79,0,0,1-.07.38c-.44.27-.16,1.36-.16,1.36v.3A9,9,0,0,0,83,33.81l.06.11c-.16.25-.12.42.45.5v.52c-.19.4-.22,1,.18,1.18l.08.37c-.08.27,0,.37.74.32V37c-.64.17-.44.71-.18.51l.09.18a.46.46,0,0,1,.07.16.94.94,0,0,0,.39.58l.13.09.2.38a3.05,3.05,0,0,0,1.42,1.46.93.93,0,0,0,.51.26c-.23.25.2.6.44.42a1.4,1.4,0,0,0,.57.26l.16.23.3-.48H89c-.08.9.3,1.13.51,1h.64c.27.12.38,0,.34-.25a.46.46,0,0,0,.56-.36.13.13,0,0,0,0-.06l.08-.11.44-.19.28-.12.19-.06c.27,0,.76-1.85.76-1.85H93l.2,1.32.13-.09.33-.12.2,0,.19-.1.14-.12a1.55,1.55,0,0,0,.86.16h.33a3.47,3.47,0,0,0,.5-.56l.16-.08c.17.09.64-.36.64-.36h.58s1.24.45,1.54,1h.5a2.42,2.42,0,0,1,2.22-.74v-.14c0-.17.26-.48.39-.86l.07-.16.08-.18c.26.07.46-.33.46-.33v-.17l0-.12c.06-.11.18-.33.23-.44l.79-.3v-.17l-.51-.13a.62.62,0,0,0,.19-.7c.41,0,.51-.59.29-.85l.11-.17a.79.79,0,0,0,.11-.83,2.17,2.17,0,0,0,0-.72c.29,0,.29-.74,0-.79a6.12,6.12,0,0,0,0-1.21,1.11,1.11,0,0,0-.14-.34,1.09,1.09,0,0,1,0-.36c0-.09.11-.37-.08-.45l-.11-.21-.12-.16a.68.68,0,0,0-.19-.7.64.64,0,0,0-.1-.13l-.08-.35a.6.6,0,0,0-.06-.19c0-.08-.14-.23-.19-.31.17-.24-.09-.65-.34-.7L102.2,27c.09-.24,0-.35-.22-.34l-.07-.18c.12-.22-.25-.55-.43-.32a1.92,1.92,0,0,0-.11-.31,1.07,1.07,0,0,0-.77-.78l-.07-.09-.3-.18a.89.89,0,0,0-.5-.45l-.12-.08L99.17,24c.22-.38-.39-.62-.66-.41l-.14-.05-.11-.1-.4-.31L97.69,22h-.37c.09.77-.28,1-.28,1H96.5l-.14-.14-.2-.1c-.1-.22-.26-.23-.49,0l-.39-.12c-.07-.2-.21-.23-.43-.09a4.71,4.71,0,0,0-.92,0,.86.86,0,0,0-1.11,0M120.07,35.1l-.1.07c-.18-.11-.63-.18-.66.09l-.18.05c-.24-.12-.41-.09-.51.1l-.16.07-.34.09-.22.09a1,1,0,0,1-.14.15l-.5.09c-.23-.1-.34,0-.32.21l-.22,0c-.24,0-.74.13-.63.44l-.35.1c0,.08-.14.22-.18.3h-.14s-1,.41-1.28,1a.94.94,0,0,0-.1.1c-.55.21-1.18.77-1.13,1.4l-.33.31a5.6,5.6,0,0,0-1,1.6v.13c-.07-.15-.16.46,0,.69l-.06.13c0,.1,1.07.38,1.07.38V43s-1.87,2.15-1.13,2.77c.07.09.2.29.26.38l-.13.09v.16s.37.72.63.47l.09.19.06.17a5.69,5.69,0,0,0,.26.56l.07.15,0,.15a1.17,1.17,0,0,0,.14.33l.06.17.64.17v.38s-.53.71-.27.78l.07.23c-.11.23-.07.39.2.46V51c-.13.18-.18.61,0,.66l.07.16c-.13.28-.07.43.17.46l.11.09a1,1,0,0,0,1.42.62h.29c0,1,.4,1,.4,1h.12c-.06.29.06.39.34.3a1.76,1.76,0,0,0,.55.27l.17.06.19.06c-.1.34.45.46.67.31h.29s.47.5.69.31l.55.07c0,.22.19.27.43.15a9.73,9.73,0,0,0,1.08,0c0,.3.74.29.78,0a7.06,7.06,0,0,0,.92,0c.21.14.35.11.43-.09l.37-.1a9.48,9.48,0,0,1,1,.66h.4s.58-1,.46-1.21l.21-.07c.27.08.66-.72.66-.72h.16l.16,1h.18c.29-.82.4-.93.34-1.2l.45-.17c.27,0,.33-.11.18-.35a3.51,3.51,0,0,0,1.63-1.53c.28.06.38-.06.29-.33L130,51c.22.19.53-.31.33-.48l.06-.54c.31.12.57-.39.44-.64s0-.29.07-.38l.1-.13a.94.94,0,0,0,.22-.75l-.7-.29v-.15s1.12-.29,1-.54l.1-.16c.22-.06.24-.49.1-.65a3,3,0,0,0,0-.73c.28-.12.28-.83,0-.95a3.05,3.05,0,0,0,0-.74c.13-.14.13-.57-.07-.62l-.11-.35c.16-.25.14-.42-.07-.51l-.1-.2.19-.14v-.54c-.18-.18-.33-.59-.62-.45l-.06-.19-.06-.16a2.48,2.48,0,0,0-.29-.56l-.1-.17a1.21,1.21,0,0,0-.09-.31l-.28-.2a.41.41,0,0,0-.22-.51l-.25-.16a.84.84,0,0,0-.27-.46,2,2,0,0,0-1.11-1.09.86.86,0,0,0-.57-.37c0-.52-.62-.72-1-.82l-.21-.08-.15-.06-.16-.07-.19-.08-.2-.09-.14-.13-.13-.1-.2-.47h-.16a1.52,1.52,0,0,0-.86.1L124,35l-.3,1h-.48c-.94-.54-2.33-.3-3.3-.18m-22.43,5-.11.08c-.18-.16-.64-.16-.68.12h-.32a5.34,5.34,0,0,0-.52.86l-.14.06c-.23-.2-.85-.1-.71.29l-.54.06c-.26-.07-.78.11-.74.42l-.39.11c-.23-.19-.5.2-.5.2h-.15s-.87.43-.9.9l-.27.09a7.28,7.28,0,0,0-2.19,2.23l-.15.2a3.31,3.31,0,0,0-1.29,1.43l-.18.19a3,3,0,0,0-1.12,1.23l-.23.27a5.27,5.27,0,0,0-1.46,1.62l-.11.25a1.87,1.87,0,0,0-1.08,1.09,1,1,0,0,0-.43.63,1.77,1.77,0,0,0-1.1,1.07.78.78,0,0,0-.27.45,1.82,1.82,0,0,0-1.09,1.08,1.26,1.26,0,0,0-.44.55c-.89.35-1.33,1.28-2,1.88-8.24,9.5-17.06,18.67-25,28.31l-.14.2c-.46.36-1.05.74-1.22,1.33l-.15.19a3.43,3.43,0,0,0-1.23,1.33,1.09,1.09,0,0,0-.27.4,1.67,1.67,0,0,0-.92.94c-.14.19-.26.4-.39.6a2.17,2.17,0,0,0-1.2,1.2,1.14,1.14,0,0,0-.37.49,3.5,3.5,0,0,0-1.42,1.48l-.12.25a2.41,2.41,0,0,0-1.24,1.27l-.12.2A11,11,0,0,0,42.13,99a6.33,6.33,0,0,0-.39.61,1.81,1.81,0,0,0-1.14,1.09,1.45,1.45,0,0,0-.3.39c-.49.38-1.14.8-.76,1.43v.12a2.69,2.69,0,0,0-2,1.47l-.13.2a15.12,15.12,0,0,0-2.76,3l-.14.31-.14.11-.08,0c-.34-.09-.38.63,0,.53.19.11.43.11.62-.31h2.61v-.18c6.49.11,13-.24,19.47.18h.3a.56.56,0,0,0,.67,0c.19.17.74.24.78-.07l.23-.16a2.11,2.11,0,0,0,1.18-1.18c.64-.27,1-.91,1.53-1.36a1.18,1.18,0,0,0,.83-.84,9.08,9.08,0,0,0,1.89-1.72.56.56,0,0,0,.6-.5.24.24,0,0,0,0-.12,6.34,6.34,0,0,0,1.5-1.33,3,3,0,0,0,1.29-1.24A12.84,12.84,0,0,0,69.4,98a2.28,2.28,0,0,0,1.1-1.09,2.39,2.39,0,0,0,.89-.81c.29.08.4,0,.34-.31l.23-.2a.58.58,0,0,0,.58-.59v0a12.71,12.71,0,0,0,2.09-1.86,1.25,1.25,0,0,0,.76-.75A11,11,0,0,0,77,90.93,1.69,1.69,0,0,0,78,90a8.09,8.09,0,0,0,1.35-1.33,1.29,1.29,0,0,0,.82-.85,12.83,12.83,0,0,0,2.08-1.89.6.6,0,0,0,.59-.61h0a1.82,1.82,0,0,0,.78-.62c2.26-1.42,4-3.72,6.09-5.39,6.23-6,12.76-11.76,18.84-17.9,1.24-1.69,2.56-3.67,2.34-5.85A3.75,3.75,0,0,1,111,55h.48s-.05-1.64,0-2.47l-.13.06a4.17,4.17,0,0,0-.1-.6c.16-.15.19-.62-.06-.65l-.08-.16c.14-.24.11-.4-.09-.49l-.07-.21-1.36-.33v-.54c1.21-.14,1.16-.57.93-.45l-.06-.16-.08-.2-.1-.13.31-.15v-.16a4.08,4.08,0,0,1-.52-.2,1.92,1.92,0,0,0-.18-.31l-.3-.19V47.5a.34.34,0,0,0,0-.2l-.12-.3-.24-.2-.14-.29c.17-.21-.18-.55-.39-.39,0-.26-.25-.39-.43-.53l-.1-.11-.24-.33-.28-.21a1,1,0,0,0-.74-.55c.13-.25.06-.36-.2-.34l-.11-.12-.35.07h-.13c.06-.53-.34,0-.34,0h-.17l-.08-.76L105,43l-.19-1h-.13l-.16.79-.15-.11-.2.32H104l-.32-.57a.56.56,0,0,0-.6-.23c.08-.38-.57-.42-.79-.23l-.14-.09-.38.12h-.5s-.25-.57-.5-.4l-.12-.07c-.43-.29-1.61.47-1.61.47H99c-.47.06-1.06-.16-1.45.11m-18.81,6.7-.32.06c-.24-.17-.41-.13-.5.13h-.17l-.31.64-.23.07-.14.14-.31,0c-.54,0-1.38.25-1.55.79l-.33.07-.19.24h.4c-.32-.07-.43,0-.31.35a.84.84,0,0,0-.54.3,3,3,0,0,0-1.49,1.49l-.12.34c-.2-.25-.62.09-.46.34,0,.08,0,.26-.08.33l-.3.23a.93.93,0,0,1-.06.4l-.16.14v.16l-.27.24a4.86,4.86,0,0,1-.1.55c-.3-.2-.54.34-.32.55l-.09.15c-1.46,2.13-1.57,6,.4,7.82A59.57,59.57,0,0,0,78,56.7a3.3,3.3,0,0,0,.82-1.1c.27.18.71-.23.48-.5a2.51,2.51,0,0,0,.94-1,1.87,1.87,0,0,0,1-1.1A2.22,2.22,0,0,0,82,52c.3.08.41,0,.33-.34a3.58,3.58,0,0,0,1.1-1.19c1-.18,1.1-1.76-.16-1.45l-.18,0a1.56,1.56,0,0,0-1.27,0H80.13c-.44.08-1.08-.16-1.39.15M111.23,62c-4,4.46-8.84,8.24-13,12.53.51,4.41,5,8,9.35,8.24,6.08.6,11.78-5.1,11.45-11.14A11,11,0,0,0,111.23,62M9.8,111l-.36.1-.27.11-.59.09c-.14-.2-.57,0-.41.24a.75.75,0,0,0-.6.22l-.1.14-.2.08H7.1l-.3-.19c-.66.42-1.56.9-1.73,1.71l-.08.16c-.27-.26-.6.25-1.45.51v.15l1,.16v.13c-.26-.12-.6.32-.38.54a4.59,4.59,0,0,1-.1.51l-.15.13-.09.22q-.31.15-.09.51a2.62,2.62,0,0,1-.09.38c-.21.07-.24.21-.1.44,0,.24,0,.48,0,.73v.1a3.85,3.85,0,0,0-.14.89c-.15.22-.11.36.09.44a1.66,1.66,0,0,0,.11.38c-.18.25-.14.41.1.49l.07.18a.44.44,0,0,1,.06.16.69.69,0,0,0,.28.56c-.17.28.06.9.43.8v.18c-.09.24.2.63.46.53l.09.13a1.73,1.73,0,0,0,1.07,1.16l.27.1.17.27.31.06q0,.39.39.24l.11.24h.37c-.17.38.5,1,.5,1h.34l.14-.45.22.08c.1.2.26.22.48,0l.37.14c0,.2.62.23.62.23h1.89c.17.16.56-.07.43-.29a61.42,61.42,0,0,1,.06-8.14l.13-.08.32-.23c.31-.07.62-.16.93-.26h2.4c15.37-.15,31.05,0,46.54-.06,1,.34,2.13,0,3.14.36l.19.19.06.14V118c-.1,2.09.53,4.12,0,6.21.08.42-.24,1.13.3,1.28,1.19-.06,2.38,0,3.57,0a.64.64,0,0,0,.8-.07l.15-.09c.32.11,1,.15,1-.28h.16s.71.46.68,1h.2c.26-.86.73-1,.69-1.29a1.12,1.12,0,0,0,.53-.4,1.91,1.91,0,0,0,1.13-1.18L76,123a1.13,1.13,0,0,0,.58-1,.48.48,0,0,0,.22-.63s.1-.11.72-.14V121c-.53,0-.48-.1-.45-.15l.09-.19.13-.32.06-.16a5.68,5.68,0,0,0,.17-3.11l-.07-.13a.64.64,0,0,0,.07-.45v-.19l-.33-.37-.07-.12c0-.43-.14-1.18-.6-1.21v-.19c-.07-.3-.15-.39-.44-.27a2,2,0,0,0-.23-.51,3.11,3.11,0,0,0-1.74-1.58l-.43-.23c.08-.37-.54-.51-.81-.82h-.16l-.18.26-.18-.06L72,112h-.18c-.07-.21-.23-.26-.47-.13l-.12-.06c-20.38.12-41.2.16-61.51,0m5.78,7.78-.34.06-.13-.08a34.34,34.34,0,0,1,0,6.25l.31.18a16.23,16.23,0,0,0,2.51-.2c15.28.11,30.6-.19,45.85.17.24.13.43-.3.25-.46a1.1,1.1,0,0,0,0-1l-.44-.1v-1.53l.47-.07c.08-.72-.3-1.4-.16-2.13l.2-.25c0-.34,0-.93-.49-.82-.42-.26-1-.26-1.37-.61h-.66c-.14.36-.22.37-.27.66L61,120h-.26c-14.32-.47-29.07-.48-43.37,0H17c.16-.58-.5-.73-.5-.38a4.41,4.41,0,0,0-.89,0Z" transform="translate(-0.29 -0.75)"/></svg>